Coordinates
version=1
nRows=27
nColumns=12
inDegrees=yes

Units are S.I. units (second, meters, Newtons, ...)
Angles are in degrees

endheader
time	SC_y	SC_z	SC_x	AC_y	AC_z	AC_x	GH_y	GH_z	GH_yy	EL_x	PS_y
       0.0              -57.06          6.292          22.91          67.68         -3.697            4.7          26.22         -17.59          39.83          53.23          17.58
   0.04594              -57.05          6.295          22.91          67.68         -3.697          4.702           26.2         -17.58          39.84          53.23           17.6
   0.09188              -57.05          6.299          22.92          67.68         -3.696          4.703          26.18         -17.57          39.86          53.23          17.62
    0.1378              -57.05          6.303          22.92          67.68         -3.696          4.705          26.15         -17.56          39.87          53.23          17.65
    0.1838              -57.05          6.307          22.92          67.68         -3.696          4.707          26.13         -17.55          39.89          53.23          17.67
    0.2297              -57.05          6.311          22.93          67.68         -3.696          4.709          26.11         -17.54           39.9          53.23           17.7
    0.2757              -57.04          6.316          22.93          67.68         -3.695          4.711          26.08         -17.52          39.92          53.23          17.72
    0.3216              -57.04          6.321          22.93          67.68         -3.695          4.713          26.05         -17.51          39.94          53.23          17.75
    0.3675              -57.04          6.327          22.94          67.68         -3.695          4.715          26.02         -17.49          39.96          53.23          17.78
    0.4135              -57.04          6.333          22.94          67.68         -3.694          4.718          25.99         -17.48          39.98          53.23          17.82
    0.4594              -57.03          6.339          22.95          67.68         -3.694          4.721          25.95         -17.46           40.0          53.23          17.85
    0.5054              -57.03          6.346          22.95          67.68         -3.694          4.724          25.92         -17.44          40.03          53.23          17.89
    0.5513              -57.03          6.353          22.96          67.68         -3.693          4.727          25.88         -17.42          40.05          53.23          17.93
    0.5972              -57.02          6.361          22.96          67.68         -3.693           4.73          25.83          -17.4          40.08          53.23          17.98
    0.6432              -57.02          6.369          22.97          67.68         -3.692          4.734          25.79         -17.38          40.12          53.23          18.02
    0.6891              -57.02          6.379          22.98          67.68         -3.692          4.738          25.73         -17.35          40.15          53.23          18.08
    0.7351              -57.01          6.389          22.98          67.68         -3.691          4.742          25.68         -17.33          40.19          53.23          18.13
     0.781              -57.01            6.4          22.99          67.68         -3.691          4.747          25.62          -17.3          40.23          53.23           18.2
     0.827               -57.0          6.412           23.0          67.68          -3.69          4.752          25.55         -17.26          40.27          53.23          18.26
    0.8729              -56.99          6.425          23.01          67.69         -3.689          4.758          25.48         -17.23          40.32          53.23          18.34
    0.9188              -56.99          6.439          23.02          67.69         -3.689          4.764           25.4         -17.19          40.37          53.23          18.42
    0.9648              -56.98          6.455          23.03          67.69         -3.688          4.771          25.31         -17.15          40.43          53.23          18.51
     1.011              -56.97          6.472          23.05          67.69         -3.687          4.778          25.22          -17.1          40.49          53.23          18.61
     1.057              -56.96          6.492          23.06          67.69         -3.686          4.787          25.11         -17.04          40.56          53.23          18.72
     1.103              -56.95          6.513          23.08          67.69         -3.685          4.796          24.99         -16.99          40.64          53.23          18.84
     1.149              -56.94          6.537           23.1          67.69         -3.683          4.807          24.86         -16.92          40.73          53.22          18.98
     1.194              -56.93          6.564          23.12          67.69         -3.682          4.818          24.71         -16.85          40.83          53.22          19.13
